<svg width="1254" height="1254" viewBox="0 0 1254 1254" fill="none" xmlns="http://www.w3.org/2000/svg">
<g clip-path="url(#clip0_89_791)">
<rect width="1254" height="1254" fill="white"/>
<path d="M0 0C413.82 0 827.64 0 1254 0C1254 413.82 1254 827.64 1254 1254C840.18 1254 426.36 1254 0 1254C0 840.18 0 426.36 0 0Z" fill="white"/>
<path d="M787.176 266.822C788.214 266.812 788.214 266.812 789.273 266.802C791.548 266.783 793.823 266.771 796.098 266.761C796.881 266.757 797.665 266.753 798.472 266.748C802.624 266.728 806.776 266.713 810.927 266.704C815.182 266.693 819.435 266.658 823.689 266.619C826.99 266.592 830.29 266.584 833.591 266.581C835.157 266.576 836.723 266.564 838.29 266.546C852.958 266.381 866.213 268.547 877.152 279.069C887.304 289.921 891.828 302.228 891.48 317.144C889.617 332.093 883.321 344.287 872.441 354.565C870.518 356.483 868.782 358.401 867.027 360.464C861.154 367.245 854.629 373.425 848.252 379.727C842.549 385.368 836.898 390.968 831.695 397.081C827.401 401.939 822.646 406.387 818.027 410.933C814.449 414.477 810.927 418.01 807.656 421.843C802.28 428.105 796.267 433.787 790.397 439.581C784.941 444.974 779.558 450.362 774.574 456.202C771.335 459.899 767.762 463.276 764.25 466.71C761.269 469.651 758.413 472.632 755.687 475.812C750.585 481.722 744.942 487.101 739.383 492.577C735.634 496.291 731.936 499.992 728.5 503.999C723.476 509.859 717.878 515.164 712.383 520.577C707.956 524.963 703.7 529.402 699.644 534.132C696.911 537.236 693.954 540.107 691 542.999C685.584 548.343 685.584 548.343 680.5 553.999C676.649 558.558 672.353 562.67 668.115 566.864C664.543 570.414 661.154 574.031 657.902 577.878C654.678 581.473 651.2 584.819 647.766 588.213C644.235 591.72 640.893 595.313 637.672 599.108C634.988 602.143 632.07 604.937 629.187 607.78C627.203 609.793 625.339 611.854 623.5 613.999C620.251 617.79 616.748 621.268 613.195 624.772C610.56 627.445 608.122 630.253 605.68 633.101C604.018 634.979 602.289 636.742 600.5 638.499C598.148 640.809 595.95 643.177 593.812 645.687C590.704 649.3 587.389 652.652 584 655.999C580.036 659.914 576.254 663.894 572.641 668.14C570.838 670.182 568.941 672.088 567 673.999C563.12 677.834 559.514 681.828 556 685.999C555.362 686.736 554.724 687.474 554.066 688.233C539.461 705.658 531.83 726.83 531.874 749.505C531.872 750.657 531.87 751.809 531.868 752.996C531.864 755.494 531.862 757.992 531.862 760.49C531.859 764.451 531.848 768.412 531.832 772.372C531.83 773.043 531.827 773.713 531.824 774.404C531.819 775.775 531.814 777.146 531.809 778.517C531.774 787.729 531.747 796.941 531.749 806.154C531.751 812.379 531.735 818.605 531.699 824.83C531.68 828.117 531.674 831.403 531.683 834.69C531.693 838.366 531.672 842.041 531.643 845.716C531.654 846.786 531.664 847.855 531.674 848.957C531.542 858.663 528.614 868.285 521.801 875.468C512.778 883.14 504.721 884.149 493.272 884.144C492.203 884.148 491.134 884.151 490.033 884.154C486.505 884.164 482.977 884.166 479.449 884.167C476.991 884.17 474.532 884.174 472.074 884.177C466.921 884.183 461.769 884.185 456.617 884.184C450.027 884.184 443.436 884.198 436.846 884.215C431.768 884.226 426.69 884.228 421.612 884.228C419.183 884.229 416.754 884.233 414.325 884.241C410.922 884.251 407.519 884.248 404.116 884.242C403.12 884.248 402.124 884.253 401.097 884.259C389.011 884.205 380.389 881.702 371.75 872.999C363.684 863.207 363.408 851.168 363.466 839.03C363.459 837.471 363.451 835.912 363.44 834.353C363.418 830.156 363.421 825.96 363.43 821.763C363.435 818.24 363.427 814.717 363.42 811.194C363.403 802.869 363.407 794.545 363.423 786.22C363.44 777.68 363.425 769.14 363.392 760.599C363.365 753.226 363.358 745.852 363.367 738.478C363.372 734.092 363.37 729.707 363.349 725.321C363.19 687.747 371.197 663.469 398 635.999C399.236 634.763 400.474 633.528 401.715 632.296C404.081 629.941 406.344 627.551 408.5 624.999C410.745 622.393 413.045 619.91 415.5 617.499C417.913 615.129 420.173 612.692 422.375 610.124C424.966 607.114 427.672 604.288 430.5 601.499C433.286 598.75 435.953 595.97 438.5 592.999C441.047 590.028 443.714 587.248 446.5 584.499C449.204 581.832 451.792 579.144 454.25 576.249C457.483 572.472 460.967 568.992 464.5 565.499C468.555 561.49 472.44 557.44 476.129 553.089C479.142 549.723 482.387 546.592 485.6 543.418C488.324 540.715 490.953 537.992 493.437 535.062C496.6 531.339 500.03 527.93 503.5 524.499C506.949 521.088 510.361 517.703 513.5 513.999C516.639 510.295 520.051 506.91 523.5 503.499C528.596 498.461 528.596 498.461 533.375 493.124C537.463 488.297 542.034 483.941 546.524 479.494C550.25 475.791 553.812 472.036 557.199 468.019C560.185 464.67 563.414 461.565 566.605 458.414C569.286 455.752 571.875 453.077 574.312 450.187C578.424 445.344 583.009 440.966 587.519 436.499C591.29 432.751 594.902 428.951 598.332 424.886C601.255 421.579 604.452 418.541 607.59 415.44C610.268 412.727 612.746 409.891 615.223 406.995C617.951 403.931 620.897 401.094 623.816 398.214C625.78 396.222 627.621 394.186 629.437 392.062C632.156 388.889 635.027 385.936 638 382.999C640.931 380.103 643.764 377.197 646.437 374.062C649.302 370.71 652.363 367.593 655.5 364.499C658.553 361.487 661.541 358.464 664.312 355.187C668.198 350.623 672.483 346.463 676.763 342.273C680.419 338.671 683.846 334.941 687.201 331.057C690.315 327.495 693.565 324.063 696.812 320.624C697.51 319.883 698.208 319.142 698.927 318.379C703.544 313.493 708.246 308.716 713.035 303.999C714.678 302.326 716.169 300.645 717.625 298.812C734.207 279.175 761.631 267.024 787.176 266.822Z" fill="#B227D2"/>
<path d="M822.812 509.313C825.028 510.215 827.224 511.077 829.492 511.841C854.491 520.283 871.927 537.88 883.57 561.138C893.028 582.348 892.598 606.64 884.832 628.251C876.82 648.579 864.19 664.03 844.906 674.372C841.981 675.839 841.981 675.839 840 678.001C840.605 678.22 841.211 678.439 841.835 678.665C853.058 682.912 861.992 689.123 871 697.001C872.032 697.888 872.032 697.888 873.085 698.794C892.454 716.7 902.862 743.595 904.121 769.492C904.564 781.397 903.831 792.417 901 804.001C900.599 805.751 900.599 805.751 900.191 807.536C895.498 826.038 885.105 842.311 872 856.001C871.195 856.867 870.391 857.733 869.562 858.626C849.41 877.304 825.009 885.077 797.822 884.176C782.281 883.213 766.265 876.883 755 866.001C752.705 863.382 750.533 860.697 748.382 857.958C745.873 854.844 743.228 851.921 740.5 849.001C736.209 844.392 732.195 839.623 728.246 834.716C725.911 831.894 723.48 829.195 721 826.501C716.906 822.054 713.075 817.454 709.281 812.751C706.932 809.92 704.49 807.207 702 804.501C697.906 800.054 694.075 795.454 690.281 790.751C687.932 787.92 685.49 785.207 683 782.501C678.886 778.031 675.029 773.411 671.214 768.685C669.043 766.054 666.797 763.522 664.5 761.001C661.404 757.605 658.448 754.139 655.562 750.563C651.701 745.79 647.625 741.267 643.468 736.751C640.271 733.189 637.286 729.475 634.281 725.751C631.932 722.92 629.49 720.207 627 717.501C607.61 696.39 607.61 696.39 607.793 683.778C608.573 673.308 618.118 665.789 624.937 658.563C625.575 657.885 626.214 657.206 626.871 656.506C630.314 652.845 633.764 649.191 637.214 645.536C638.601 644.066 639.988 642.596 641.375 641.126C642.049 640.411 642.724 639.696 643.419 638.959C647.723 634.386 651.945 629.754 656.121 625.063C658.436 622.522 660.867 620.119 663.32 617.712C665.751 615.235 667.985 612.598 670.25 609.97C671.938 608.071 673.687 606.281 675.5 604.501C677.913 602.131 680.172 599.694 682.375 597.126C684.966 594.116 687.672 591.29 690.5 588.501C693.245 585.793 695.872 583.059 698.375 580.126C701.703 576.241 705.307 572.664 708.946 569.074C712.24 565.808 715.314 562.422 718.324 558.896C720.139 556.843 722.047 554.924 724 553.001C726.517 550.522 728.9 548.007 731.187 545.313C735.011 540.853 739.184 536.762 743.381 532.656C745.776 530.299 747.997 528.004 750.078 525.356C758.519 515.011 772.793 509.041 785.749 507.219C796.988 506.129 812.161 504.849 822.812 509.313Z" fill="#9B40CD"/>
<path d="M415.344 265.203C417.921 265.198 420.498 265.193 423.076 265.185C428.462 265.176 433.848 265.188 439.234 265.217C445.43 265.25 451.626 265.239 457.822 265.206C463.823 265.176 469.823 265.179 475.823 265.197C478.359 265.201 480.895 265.196 483.43 265.182C510.478 265.065 510.478 265.065 522 275.437C527.907 281.962 531.231 289.33 531.281 298.194C531.292 299.416 531.304 300.638 531.315 301.897C531.318 303.238 531.32 304.58 531.322 305.921C531.332 307.344 531.342 308.767 531.352 310.19C531.379 314.048 531.391 317.906 531.4 321.764C531.406 324.182 531.414 326.599 531.423 329.016C531.451 336.599 531.47 344.182 531.478 351.765C531.487 360.481 531.522 369.196 531.58 377.912C531.623 384.671 531.643 391.43 531.646 398.19C531.648 402.216 531.659 406.242 531.695 410.267C531.966 442.287 531.966 442.287 525 454.999C524.513 455.964 524.026 456.929 523.525 457.924C518.197 468.003 508.565 475.821 500.5 483.687C498.12 486.024 495.742 488.365 493.368 490.708C491.899 492.155 490.426 493.599 488.95 495.039C484.957 498.955 481.195 502.986 477.547 507.224C475.66 509.39 473.673 511.424 471.625 513.437C470.867 514.187 470.109 514.937 469.328 515.71C467.776 517.236 466.224 518.762 464.672 520.288C461.19 523.735 457.782 527.183 454.594 530.906C449.337 537.022 443.477 542.564 437.738 548.222C433.178 552.743 428.773 557.304 424.596 562.181C422.037 565.096 419.273 567.79 416.5 570.499C413.091 573.867 409.716 577.207 406.625 580.874C403.015 585.041 399.191 588.959 395.312 592.874C394.658 593.542 394.003 594.21 393.329 594.897C392.387 595.841 392.387 595.841 391.426 596.804C390.581 597.655 390.581 597.655 389.72 598.522C385.546 602.107 381.817 602.45 376.469 602.3C372.625 601.832 370.765 600.698 368 597.999C363.749 591.17 363.427 584.624 363.485 576.761C363.478 575.553 363.471 574.345 363.464 573.1C363.449 569.768 363.452 566.438 363.462 563.106C363.469 559.505 363.453 555.903 363.44 552.302C363.419 545.255 363.419 538.207 363.427 531.16C363.433 525.429 363.432 519.698 363.426 513.967C363.425 513.15 363.424 512.333 363.423 511.492C363.421 509.832 363.419 508.173 363.417 506.513C363.401 490.961 363.41 475.409 363.426 459.857C363.441 445.646 363.427 431.435 363.398 417.224C363.368 402.614 363.357 388.005 363.367 373.396C363.368 371.742 363.369 370.088 363.37 368.433C363.37 367.62 363.371 366.806 363.371 365.967C363.373 360.248 363.364 354.53 363.349 348.811C363.332 341.834 363.332 334.857 363.354 327.88C363.366 324.324 363.369 320.768 363.35 317.212C363.33 313.347 363.349 309.484 363.372 305.619C363.36 304.509 363.348 303.398 363.336 302.254C363.464 291.419 366.994 281.731 374.714 273.958C386.736 263.657 400.309 265.119 415.344 265.203Z" fill="#7823FC"/>
<path d="M511 517C511.66 517.33 512.32 517.66 513 518C503.59 528.558 503.59 528.558 499 533C498.01 532.67 497.02 532.34 496 532C500.95 527.05 505.9 522.1 511 517Z" fill="#B623EB"/>
</g>
<defs>
<clipPath id="clip0_89_791">
<rect width="1254" height="1254" fill="white"/>
</clipPath>
</defs>
</svg>
